<svg width="18" height="18" viewBox="0 0 18 18" fill="none" xmlns="http://www.w3.org/2000/svg">
<g clip-path="url(#clip0)">
<path d="M18.0001 9.20664C18.0001 8.59484 17.9494 7.97974 17.8415 7.37787H9.18054V10.8436H14.1403C13.9344 11.9614 13.2731 12.9502 12.3048 13.5785V15.8273H15.2638C17.0014 14.2597 18.0001 11.9448 18.0001 9.20664Z" fill="#4285F4"/>
<path d="M9.18053 18C11.657 18 13.7455 17.203 15.2671 15.8273L12.3082 13.5786C11.4849 14.1275 10.4221 14.4384 9.18391 14.4384C6.78841 14.4384 4.75729 12.8543 4.02852 10.7246H0.975098V13.0428C2.53386 16.082 5.70874 18 9.18053 18Z" fill="#34A853"/>
<path d="M4.02485 10.7246C3.64022 9.60684 3.64022 8.39648 4.02485 7.27872V4.96051H0.974804C-0.327539 7.50359 -0.327539 10.4997 0.974804 13.0428L4.02485 10.7246Z" fill="#FBBC04"/>
<path d="M9.18053 3.56151C10.4896 3.54167 11.7549 4.02449 12.7029 4.91077L15.3245 2.34123C13.6645 0.813396 11.4613 -0.0265819 9.18053 -0.000125922C5.70874 -0.000125922 2.53386 1.91793 0.975098 4.96037L4.02514 7.27858C4.75054 5.14557 6.78503 3.56151 9.18053 3.56151Z" fill="#EA4335"/>
</g>
<defs>
<clipPath id="clip0">
<rect width="18" height="18" fill="white"/>
</clipPath>
</defs>
</svg>
