<svg xmlns="http://www.w3.org/2000/svg" viewBox="0 0 987.58 206.85">
  <g id="Layer_2" data-name="Layer 2">
    <g id="Layer_1-2" data-name="Layer 1">
      <g>
        <path d="M794.5,69q3.12,0,6.42,4t3.3,6.54q0,2.58-.9,2.58a12.84,12.84,0,0,1-3.42-.9,13.71,13.71,0,0,0-4.56-.9q-4.68,0-11.34,4.8a69.86,69.86,0,0,0-12.6,11.88,72.18,72.18,0,0,0-10.14,16.14q-4.2,9.06-4.2,15.66t3.42,9.66a12.9,12.9,0,0,0,8.94,3.06,42.85,42.85,0,0,0,11.4-1.62,45.19,45.19,0,0,0,9.6-3.66Q800,131,801,131q2,0,2,2.7t-5.52,7.2a59.7,59.7,0,0,1-13.68,8.1q-8.16,3.6-14.64,3.6-8.4,0-15.84-7.26t-7.44-16q0-11.28,7.38-25.5a85,85,0,0,1,19-24.54Q783.82,69,794.5,69Z" style="fill: #eb4a36"/>
        <path d="M857.14,94.52q.48-.72,2.1-.72t4,3.12a10.11,10.11,0,0,1,2.34,6q0,1.56-5.28,18.48t-8.16,26.88q-1.44,5-4.08,5a3.29,3.29,0,0,1-2.64-1.32q-1.08-1.32-1.08-4.8t2.76-12.6A60.92,60.92,0,0,1,836.14,148q-5.88,5.28-10.74,5.28t-9.18-4.56q-4.32-4.56-4.32-9.36,0-11.4,6.66-28.5t11.1-17.1a4.78,4.78,0,0,1,3.78,2,6.91,6.91,0,0,1,1.62,4.5q0,1.08-3.24,7.74a162.6,162.6,0,0,0-6.48,15.6,46.94,46.94,0,0,0-3.24,15.66,4.43,4.43,0,0,0,1.2,3.18,3.84,3.84,0,0,0,2.88,1.26q4.56,0,10.86-8A102.62,102.62,0,0,0,848.5,117a118.72,118.72,0,0,0,7.68-19.8A9.29,9.29,0,0,1,857.14,94.52Z" style="fill: #eb4a36"/>
        <path d="M894.46,104.84q-2.28,9.12-6.18,21.72t-3.9,14.82q0,2.22,2.64,2.22a31.33,31.33,0,0,0,11.1-2.58q6.54-2.58,7.26-2.58,2.16,0,2.16,2.28,0,3.48-7.14,8t-12.9,4.56a14.55,14.55,0,0,1-9.6-3.18q-3.84-3.18-3.84-6.54a35,35,0,0,1,1.38-8.58q1.38-5.22,4.14-13.86t4.2-14.16a41.81,41.81,0,0,1-7.56,1.32,5.28,5.28,0,0,1-3.78-2,5.71,5.71,0,0,1-1.86-3.78q0-2.88,15.6-5.52a84.4,84.4,0,0,0,2.16-17.64q0-3.6,2.52-3.6,1.92,0,4.92,2.58a7.57,7.57,0,0,1,3,5.82q0,3.24-2,11.4,6.84-.6,10.92-.6,7.2,0,7.2,3.12,0,1.8-3.9,3T894.46,104.84Zm-19.32,58.32a4.68,4.68,0,0,1,2-3.48,7.17,7.17,0,0,1,4.8-1.68,8.39,8.39,0,0,1,5.64,2.58,8.09,8.09,0,0,1,2.82,6.18q0,6.12-6.06,11.34t-10.74,5.22q-2.76,0-2.76-2,0-1.69,4.86-5.58t5.7-6.66a10.18,10.18,0,0,0-3.6-2.7Q875.14,165,875.14,163.16Z" style="fill: #eb4a36"/>
        <path d="M929.86,93.8q2.28,0,4.32,2.76a9.12,9.12,0,0,1,2,5.4q0,2.64-3.48,15.78T924,147.2q-2,6-5.16,6a3.69,3.69,0,0,1-2.88-1.38,4.63,4.63,0,0,1-1.2-3.12,27,27,0,0,1,.9-5.52q.9-3.78,2.64-10.08T921,122.84q1-4,2.1-8.94l1.74-8q.66-3.06,1.5-6.18Q928.06,93.8,929.86,93.8Zm.6-17a6.79,6.79,0,0,1,1.92-4.56,5.36,5.36,0,0,1,3.9-2.16q2,0,4.74,4.86t2.76,8.1a2.84,2.84,0,0,1-1.08,2.16,3.39,3.39,0,0,1-2.28,1q-2.88,0-6.42-3.48T930.46,76.76Z" style="fill: #eb4a36"/>
        <path d="M957.1,141.32q0,2.28,2.64,2.28a31.33,31.33,0,0,0,11.1-2.58q6.54-2.58,7.26-2.58,2.16,0,2.16,2.28,0,3.48-7.14,8t-13,4.56a14.64,14.64,0,0,1-9.66-3.18q-3.84-3.18-3.84-6.54A33.69,33.69,0,0,1,948.1,135q1.44-5.22,4.14-13.8T956.5,107a41.81,41.81,0,0,1-7.56,1.32,5.28,5.28,0,0,1-3.78-2,5.71,5.71,0,0,1-1.86-3.78q0-2.88,15.6-5.52a84.4,84.4,0,0,0,2.16-17.64q0-3.6,2.4-3.6,2,0,5,2.58a7.57,7.57,0,0,1,3,5.82q0,3.24-2,11.4,6.84-.6,10.92-.6,7.2,0,7.2,3.12,0,1.8-3.9,3t-16.38,3.72q-2.52,9.48-6.36,21.66T957.1,141.32Z" style="fill: #eb4a36"/>
      </g>
      <g id="logo">
        <path id="Fill-1-Copy-3" d="M665.12,191.18c-1.61,3.95-5,6.66-8.51,6.9-2.8.19-5.87-1.09-8.88-3.69-8.85-7.66-21.73-24.16-34.18-40.11-11.38-14.57-22.13-28.34-30.23-36.08A4.35,4.35,0,0,0,580,117a4.5,4.5,0,0,0-2.71,1.16c-2.49,2.3-8.63,7.57-13.4,12.19a.8.8,0,0,1-.58.27c-2.61,2-3.21-.08-9.35-5.48-9.88-8.7-43.9-64.44-54.2-82.92-4-7.16-.51-3.46,1.91-1.43,26.23,21.92,151.78,129.74,161.78,139.62C666.64,183.57,666.41,188,665.12,191.18ZM483.81,21.53c-1.55,2.16-2.17,5,4.88,19.9,4.22,8.92,33.07,57.68,42.35,71.5C549.92,141,558,138.45,562.8,138.12a9.72,9.72,0,0,0,6.19-2.75c4.6-4.47,6.16-5.81,8-7.37.64-.55,1.32-1.13,2.16-1.88,7.47,7.86,17.25,20.41,26.74,32.59,12.77,16.39,26,33.34,35.49,41.6,6,5.24,11.64,6.06,15.26,5.81,6.93-.47,13.25-5.29,16.1-12.29s1.56-14.6-3.47-19.58C658.88,164,512.08,38.19,490.45,21.2,487.44,18.84,484.7,20.29,483.81,21.53Z" style="fill: #eb4a36"/>
        <path id="Fill-3-Copy-2" d="M642.81,84.86a26.34,26.34,0,0,1-16.08-7.65c-8.67-8.62-14.56-20.94-5.59-30L656,80.91l-.56.53C652.69,84,648,85.32,642.81,84.86Zm59.9-43.14a4.35,4.35,0,0,0-6-.09c-10.82,10.13-20.91,20-29,27.94L662,75.13l-8-7.72L687.8,35.79a4,4,0,0,0,.09-5.78,4.35,4.35,0,0,0-6-.09L648,61.63l-7.52-7.27,34-31.81a4,4,0,0,0,.09-5.79,4.34,4.34,0,0,0-6-.08L634.53,48.57l-7.32-7.07L664,7a4,4,0,0,0,.09-5.78,4.34,4.34,0,0,0-6-.08L615.76,40.83c-10.83,10.13-10,25,1.8,38.75l-24.09,22.9a4,4,0,0,0-.09,5.79,4.36,4.36,0,0,0,6,.08l24.1-22.92a34.85,34.85,0,0,0,16.25,7.29c.76.12,1.53.21,2.3.28,7.69.69,14.74-1.38,19.34-5.69,2.94-2.76,7.1-6.83,12.37-12,8.08-7.91,18.13-17.75,28.88-27.81A4,4,0,0,0,702.71,41.72Z" style="fill: #eb4a36"/>
        <path id="Fill-4-Copy-2" d="M566.12,144.45a3.75,3.75,0,0,0-5.2.3c-14.84,16.21-41.78,44.84-50.87,52.67-4.51,3.89-11.63,2.32-15.44-1.59-4-4.08-3.38-9.26,1.65-14.2,12.78-12.54,31.61-26.9,45.81-37.29a3.52,3.52,0,0,0,.72-5,3.75,3.75,0,0,0-5.16-.7c-14.39,10.53-33.5,25.1-46.61,38-9.56,9.38-6.92,18.88-1.77,24.16a20.89,20.89,0,0,0,11.43,5.85A17.25,17.25,0,0,0,515,202.77c10.5-9,40.72-41.52,51.48-53.27a3.5,3.5,0,0,0-.31-5.05" style="fill: #eb4a36"/>
      </g>
      <g>
        <path d="M16.92,117.86h-.24q-.24,1.2-2.34,9.6t-2.7,11q-.6,2.58-1,4.14t-.9,3.54a29.64,29.64,0,0,1-.9,3.12q-.42,1.14-.78,2.22-.72,2-1.44,2-1.56,0-4.08-3.42T0,144.5q0-2.16,6.9-30T14,77.42a4.57,4.57,0,0,1,.84-2.88Q16.08,72,22,70.94a104.6,104.6,0,0,1,17.4-1.08,105,105,0,0,1,18,1.2Q64,72.26,64,74.42q0,1.44-2,2t-3.6.9q-1.56.3-4.08.6t-4.68.48Q47.4,78.62,44,79l-6.3.66q-2.88.3-7.8.9t-6.36.72a3.64,3.64,0,0,1,.12,1.08q0,5.64-4.68,25.92a121.77,121.77,0,0,0,16-.36q8.58-.72,10.5-.72,4.56,0,4.56,1.92,0,3.72-10.38,6.24A96.34,96.34,0,0,1,16.92,117.86Z" style="fill: #eb4a36"/>
        <path d="M103.2,94.82q.48-.72,2.1-.72t4,3.12a10.11,10.11,0,0,1,2.34,6q0,1.56-5.28,18.48t-8.16,26.88q-1.44,5-4.08,5a3.29,3.29,0,0,1-2.64-1.32q-1.08-1.32-1.08-4.8t2.76-12.6A60.92,60.92,0,0,1,82.2,148.34q-5.88,5.28-10.74,5.28t-9.18-4.56Q58,144.5,58,139.7q0-11.4,6.66-28.5t11.1-17.1a4.78,4.78,0,0,1,3.78,2,6.91,6.91,0,0,1,1.62,4.5q0,1.08-3.24,7.74a162.6,162.6,0,0,0-6.48,15.6,46.94,46.94,0,0,0-3.24,15.66,4.43,4.43,0,0,0,1.2,3.18A3.84,3.84,0,0,0,72.24,144q4.56,0,10.86-8a102.62,102.62,0,0,0,11.46-18.72,118.72,118.72,0,0,0,7.68-19.8A9.29,9.29,0,0,1,103.2,94.82Z" style="fill: #eb4a36"/>
        <path d="M124.68,108.74l-.36-9q0-5.64,2.64-5.64,2.28,0,4.38,2.94a11.66,11.66,0,0,1,2.1,7,56.32,56.32,0,0,1-.24,6.06Q143.64,94.22,153,94.22q5.88,0,5.88,2.88a3.53,3.53,0,0,1-1.32,2.64,22.28,22.28,0,0,1-4.2,2.76A26.88,26.88,0,0,0,142.62,111a51,51,0,0,0-7.14,12.9q-2.76,7.2-4.38,12.12t-2.46,7.68q-.84,2.76-1.92,5.4-1.92,4.8-4.44,4.8a3.74,3.74,0,0,1-3.3-2.34,9.59,9.59,0,0,1-1.26-4.56q0-2.22,2-8.82A94.77,94.77,0,0,0,124.68,108.74Z" style="fill: #eb4a36"/>
        <path d="M176.58,153.62q-7,0-13.14-5.46a16.83,16.83,0,0,1-6.12-13q0-7.5,5-17.34a55.76,55.76,0,0,1,13-16.8q8-7,15.54-7,4.92,0,8.64,4.44t3.72,7.8a2.32,2.32,0,0,1-.6,1.62,2.23,2.23,0,0,1-1.74.66q-1.14,0-4-2.16a9,9,0,0,0-5.16-2.16q-6.48,0-15.12,11.4T168,135.62a7.61,7.61,0,0,0,2.34,5.88q2.34,2.16,7.56,2.16a34.63,34.63,0,0,0,9.6-1.26,37.39,37.39,0,0,0,6.78-2.52,8.92,8.92,0,0,1,3.72-1.26,2,2,0,0,1,2.28,2.28q0,3.48-8.34,8.1T176.58,153.62Z" style="fill: #eb4a36"/>
        <path d="M254,94.82c.31-.48,1-.72,2.1-.72s2.4,1,4,3.12a10.11,10.11,0,0,1,2.34,6q0,1.56-5.28,18.48T249,148.58c-1,3.36-2.33,5-4.08,5a3.29,3.29,0,0,1-2.64-1.32q-1.08-1.32-1.08-4.8c0-2.32.91-6.52,2.76-12.6A61.2,61.2,0,0,1,233,148.34q-5.88,5.28-10.74,5.28t-9.18-4.56q-4.32-4.56-4.32-9.36,0-11.4,6.66-28.5t11.1-17.1a4.78,4.78,0,0,1,3.78,2,6.91,6.91,0,0,1,1.62,4.5q0,1.08-3.24,7.74a162.6,162.6,0,0,0-6.48,15.6A46.94,46.94,0,0,0,219,139.58a4.43,4.43,0,0,0,1.2,3.18,3.81,3.81,0,0,0,2.88,1.26q4.56,0,10.86-8a102.62,102.62,0,0,0,11.46-18.72,119.6,119.6,0,0,0,7.68-19.8A9,9,0,0,1,254,94.82Z" style="fill: #eb4a36"/>
        <path d="M292,70.58q0,22.56-9.36,58.56-6,24.48-8.4,24.48-1.68,0-3.9-2.64t-2.22-4.08q0-1.44,3.48-14.88t7-33.06A204.31,204.31,0,0,0,282,63.62a4.5,4.5,0,0,1,.48-2.4,2.32,2.32,0,0,1,2-.72q1.56,0,4.5,3.42T292,70.58Z" style="fill: #eb4a36"/>
        <path d="M312.47,94.1q2.28,0,4.32,2.76a9.12,9.12,0,0,1,2,5.4q0,2.64-3.48,15.78t-8.76,29.46q-2,6-5.16,6a3.69,3.69,0,0,1-2.88-1.38,4.63,4.63,0,0,1-1.2-3.12,27,27,0,0,1,.9-5.52q.9-3.78,2.64-10.08t2.76-10.26q1-4,2.1-8.94l1.74-8q.66-3.06,1.5-6.18Q310.67,94.1,312.47,94.1Zm.6-17A6.79,6.79,0,0,1,315,72.5a5.36,5.36,0,0,1,3.9-2.16q2,0,4.74,4.86t2.76,8.1a2.84,2.84,0,0,1-1.08,2.16,3.39,3.39,0,0,1-2.28,1q-2.88,0-6.42-3.48T313.07,77.06Z" style="fill: #eb4a36"/>
        <path d="M349.31,105.14q-2.28,9.12-6.18,21.72t-3.9,14.82q0,2.22,2.64,2.22a31.33,31.33,0,0,0,11.1-2.58q6.54-2.58,7.26-2.58,2.16,0,2.16,2.28,0,3.48-7.14,8t-12.9,4.56a14.55,14.55,0,0,1-9.6-3.18q-3.84-3.18-3.84-6.54a35,35,0,0,1,1.38-8.58q1.38-5.22,4.14-13.86t4.2-14.16a41.81,41.81,0,0,1-7.56,1.32,5.28,5.28,0,0,1-3.78-2,5.71,5.71,0,0,1-1.86-3.78q0-2.88,15.6-5.52a84.4,84.4,0,0,0,2.16-17.64q0-3.6,2.52-3.6,1.92,0,4.92,2.58a7.57,7.57,0,0,1,3,5.82q0,3.24-2,11.4,6.84-.6,10.92-.6,7.2,0,7.2,3.12,0,1.8-3.9,3T349.31,105.14ZM330,163.46a4.68,4.68,0,0,1,2-3.48,7.17,7.17,0,0,1,4.8-1.68,8.43,8.43,0,0,1,5.64,2.58,8.09,8.09,0,0,1,2.82,6.18q0,6.12-6.06,11.34t-10.74,5.22q-2.76,0-2.76-2,0-1.68,4.86-5.58t5.7-6.66a10.42,10.42,0,0,0-3.6-2.7Q330,165.26,330,163.46Z" style="fill: #eb4a36"/>
        <path d="M402.23,94.1q5.4,0,10,5.46t4.56,9.84a16.25,16.25,0,0,1-3,8.94,5.36,5.36,0,0,1,1.44,3.12,74.36,74.36,0,0,1-1.5,11.52q-1.5,8.16-1.8,10.68t-.54,4q-.24,1.5-.48,2.94-.6,3-2.28,3-4.32,0-5.16-13.44-10.8,13.44-19.8,13.44-5.52,0-10.86-4.74t-5.34-9.78q0-7.2,5.28-17.82a70.29,70.29,0,0,1,13.68-18.9Q394.79,94.1,402.23,94.1Zm5.52,21.12q0-11.16-4.32-11.16-4.68,0-11,6.66a65.11,65.11,0,0,0-10.62,15.06q-4.32,8.4-4.32,13.32a3.94,3.94,0,0,0,1.68,3.3,6.41,6.41,0,0,0,4,1.26q5.64,0,12.72-7.62a41.73,41.73,0,0,0,9.84-18.54,2.51,2.51,0,0,1,2-2.16Zm21.6-43.32a2.44,2.44,0,0,1,2.76,2.76q0,4-6.12,8.34t-12.18,4.38a16.14,16.14,0,0,1-10.92-4.26Q398,78.86,398,74.3a6.61,6.61,0,0,1,1.74-4.8,5.09,5.09,0,0,1,3.66-1.8q1.32,0,2.4,2.88a23.28,23.28,0,0,0,3.24,5.76,6.9,6.9,0,0,0,5.82,2.88,10.66,10.66,0,0,0,6.3-1.86,42.26,42.26,0,0,0,4.56-3.66A5.5,5.5,0,0,1,429.35,71.9Z" style="fill: #eb4a36"/>
      </g>
    </g>
  </g>
</svg>
